<mxfile
  host="Electron" 
  agent="Mozilla/5.0 (Macintosh; Intel Mac OS X 10_15_7) AppleWebKit/537.36 (KHTML, like Gecko) draw.io/25.0.2 Chrome/128.0.6613.186 Electron/32.2.5 Safari/537.36" 
  version="25.0.2"
  >
  <diagram
    name="-"
    >
    <mxGraphModel
      grid="1" 
      gridSize="10" 
      guides="1" 
      tooltips="1" 
      connect="1" 
      arrows="1" 
      fold="1" 
      page="1" 
      pageScale="1" 
      pageWidth="1" 
      pageHeight="1" 
      math="0" 
      shadow="0"
      >
      <root>
        <mxCell
          id="page"
          />
        <mxCell
          id="root" 
          parent="page"
          />
        <mxCell
          style="verticalAlign=top;aspect=fixed;align=center;spacingLeft=5;spacingRight=5;spacingBottom=5;strokeColor=none;" 
          id="shape_" 
          parent="root" 
          value=" " 
          vertex="1"
          >
          <mxGeometry
            as="geometry" 
            width="49" 
            height="48" 
            x="0" 
            y="0"
            />
          </mxCell>
        <mxCell
          style="shape=image;editableCssRules=.*;verticalLabelPosition=bottom;labelBackgroundColor=default;verticalAlign=top;aspect=fixed;imageAspect=0;image=data:image/svg+xml,PHN2ZyB4bWxucz0iaHR0cDovL3d3dy53My5vcmcvMjAwMC9zdmciIHZpZXdCb3g9Ii0wLjUgLTAuNSAyOSAyOCIgaGVpZ2h0PSIyOCIgd2lkdGg9IjI5Ij4mI3hhOwkgIDxzdHlsZSB0eXBlPSJ0ZXh0L2NzcyI+LnN0MCB7IHN0b3AtY29sb3I6IHJnYig5MSwgMTE1LCAxMzkpOyB9IC5zdDEgeyBzdG9wLWNvbG9yOiByZ2IoMzQsIDUzLCA3Mik7IH0gPC9zdHlsZT4mI3hhOwk8ZGVmcz4mI3hhOwkJPGxpbmVhckdyYWRpZW50IGdyYWRpZW50VW5pdHM9InVzZXJTcGFjZU9uVXNlIiB5Mj0iMjIuMDI1IiB4Mj0iMjQuOTcyIiB5MT0iMy40NzQiIHgxPSIzLjc0NiIgaWQ9IkEiPiYjeGE7CQkJPHN0b3AgY2xhc3M9InN0MCIvPiYjeGE7CQkJPHN0b3AgY2xhc3M9InN0MSIgb2Zmc2V0PSIxIi8+JiN4YTsJCTwvbGluZWFyR3JhZGllbnQ+JiN4YTsJPC9kZWZzPiYjeGE7CTxwYXRoIGZpbGw9InVybCgjQSkiIGQ9Ik0yNC4yNTUgMTQuMTg1Yy40MDIgMCAuNzEyLjEyOC45MzIuMzg0LjI1Ni4yMTkuMzg0LjUzLjM4NC45MzF2MTAuNjg1YzAgLjg3Ny0uNDM4IDEuMzE1LTEuMzE1IDEuMzE1SDIuOTRjLS45MTMgMC0xLjM3LS40MzgtMS4zNy0xLjMxNXYtMTZjMC0uNDAyLjEyOC0uNzEyLjM4NC0uOTMxLjI1Ni0uMjU2LjU4NC0uMzg0Ljk4Ni0uMzg0aDUuMjA1VjYuMTg1YzAtLjM2NS4xNjQtLjcxMi40OTMtMS4wNDFsMy42MTYtMi4zMDFWLjg3YzAtLjQwMi4xMS0uNzMxLjMyOS0uOTg2LjI1Ni0uMjU2LjU4NS0uMzg0Ljk4Ni0uMzg0LjkxMyAwIDEuMzcuNDU3IDEuMzcgMS4zN3YxLjk3M2wzLjI4OCAyLjMwMWMuMzY1LjIxOS41NDguNTY2LjU0OCAxLjA0MXY4em0tNS40NzkgMi42ODV2Mi42M2g0LjE2NHYtMi42M3ptLTIuNjMgMGgtNS4zN3YyLjYzaDUuMzd6bTAtMi42ODVWMTEuNWgtNS4zN3YyLjY4NXptLTUuMzctNS4zMTVoNS4zN1Y2Ljg0MkwxMy40NiA1LjE0NGwtMi42ODUgMS42OTl6bS02LjUyMSA1LjMxNWgzLjg5VjExLjVoLTMuODl6bTAgMi42ODV2Mi42M2gzLjg5di0yLjYzem0zLjg5IDh2LTIuNjg1aC0zLjg5djIuNjg1em04IDB2LTIuNjg1aC01LjM3djIuNjg1em02Ljc5NCAwdi0yLjY4NWgtNC4xNjR2Mi42ODV6Ii8+JiN4YTs8L3N2Zz4;strokeColor=none;" 
          id="building_non_sap_" 
          parent="shape_" 
          value=" " 
          vertex="1"
          >
          <mxGeometry
            width="29" 
            height="28" 
            as="geometry" 
            x="10" 
            y="10"
            />
          </mxCell>
        </root>
      </mxGraphModel>
    </diagram>
  </mxfile>